HIERARCHY
ROOT Hips
{
	OFFSET 0.000000 100.481300 0.000000
	CHANNELS 6 Xposition Yposition Zposition Xrotation Yrotation Zrotation
	JOINT Spine
	{
		OFFSET -0.279200 12.230698 -2.892100
		CHANNELS 3 Xrotation Yrotation Zrotation
		JOINT Spine1
		{
			OFFSET -0.325700 14.269203 -3.374200
			CHANNELS 3 Xrotation Yrotation Zrotation
			JOINT Spine2
			{
				OFFSET -0.372300 16.307602 -0.352600
				CHANNELS 3 Xrotation Yrotation Zrotation
				JOINT Neck
				{
					OFFSET -0.418800 17.814194 8.416900
					CHANNELS 3 Xrotation Yrotation Zrotation
					JOINT Head
					{
						OFFSET 0.000000 7.031097 3.806800
						CHANNELS 3 Xrotation Yrotation Zrotation
						JOINT HeadTop_End
						{
							OFFSET 0.000000 24.646606 12.978600
							CHANNELS 3 Xrotation Yrotation Zrotation
							End Site
							{
								OFFSET 0.000000 27.854965 0.000000
							}
						}
					}
				}
				JOINT LeftShoulder
				{
					OFFSET 16.952999 14.495407 -7.737500
					CHANNELS 3 Xrotation Yrotation Zrotation
					JOINT LeftArm
					{
						OFFSET 9.308998 -2.777710 0.208600
						CHANNELS 3 Xrotation Yrotation Zrotation
						JOINT LeftForeArm
						{
							OFFSET 29.972298 0.000000 0.000000
							CHANNELS 3 Xrotation Yrotation Zrotation
							JOINT LeftHand
							{
								OFFSET 26.026505 0.000000 0.000000
								CHANNELS 3 Xrotation Yrotation Zrotation
								JOINT LeftHandThumb1
								{
									OFFSET 12.240501 -7.147949 9.207150
									CHANNELS 3 Xrotation Yrotation Zrotation
									JOINT LeftHandThumb2
									{
										OFFSET 4.138618 -2.389435 2.389433
										CHANNELS 3 Xrotation Yrotation Zrotation
										JOINT LeftHandThumb3
										{
											OFFSET 2.726913 -1.574387 1.574386
											CHANNELS 3 Xrotation Yrotation Zrotation
											JOINT LeftHandThumb4
											{
												OFFSET 3.941010 -2.275345 2.275342
												CHANNELS 3 Xrotation Yrotation Zrotation
												End Site
												{
													OFFSET -0.005798 5.087799 0.009903
												}
											}
										}
									}
								}
								JOINT LeftHandIndex1
								{
									OFFSET 24.424698 -1.985611 5.953459
									CHANNELS 3 Xrotation Yrotation Zrotation
									JOINT LeftHandIndex2
									{
										OFFSET 6.426697 0.000000 0.000000
										CHANNELS 3 Xrotation Yrotation Zrotation
										JOINT LeftHandIndex3
										{
											OFFSET 5.337898 0.000000 0.000000
											CHANNELS 3 Xrotation Yrotation Zrotation
											JOINT LeftHandIndex4
											{
												OFFSET 4.409401 0.000000 0.000000
												CHANNELS 3 Xrotation Yrotation Zrotation
												End Site
												{
													OFFSET 0.000000 4.409363 0.014373
												}
											}
										}
									}
								}
								JOINT LeftHandMiddle1
								{
									OFFSET 23.810104 0.000000 0.000000
									CHANNELS 3 Xrotation Yrotation Zrotation
									JOINT LeftHandMiddle2
									{
										OFFSET 7.176498 0.000000 0.000000
										CHANNELS 3 Xrotation Yrotation Zrotation
										JOINT LeftHandMiddle3
										{
											OFFSET 6.774902 0.000000 0.000000
											CHANNELS 3 Xrotation Yrotation Zrotation
											JOINT LeftHandMiddle4
											{
												OFFSET 5.403328 0.000000 0.000000
												CHANNELS 3 Xrotation Yrotation Zrotation
												End Site
												{
													OFFSET -0.027702 5.403244 0.017414
												}
											}
										}
									}
								}
								JOINT LeftHandRing1
								{
									OFFSET 22.908401 -0.839279 -6.020567
									CHANNELS 3 Xrotation Yrotation Zrotation
									JOINT LeftHandRing2
									{
										OFFSET 6.337502 0.000000 0.000000
										CHANNELS 3 Xrotation Yrotation Zrotation
										JOINT LeftHandRing3
										{
											OFFSET 5.779297 0.000000 0.000000
											CHANNELS 3 Xrotation Yrotation Zrotation
											JOINT LeftHandRing4
											{
												OFFSET 4.965698 0.000000 0.000000
												CHANNELS 3 Xrotation Yrotation Zrotation
												End Site
												{
													OFFSET 0.000000 4.965668 0.016186
												}
											}
										}
									}
								}
								JOINT LeftHandPinky1
								{
									OFFSET 20.037003 -1.530319 -10.950146
									CHANNELS 3 Xrotation Yrotation Zrotation
									JOINT LeftHandPinky2
									{
										OFFSET 5.254700 0.000000 0.000000
										CHANNELS 3 Xrotation Yrotation Zrotation
										JOINT LeftHandPinky3
										{
											OFFSET 4.810204 0.000000 0.000000
											CHANNELS 3 Xrotation Yrotation Zrotation
											JOINT LeftHandPinky4
											{
												OFFSET 3.647202 0.000000 0.000000
												CHANNELS 3 Xrotation Yrotation Zrotation
												End Site
												{
													OFFSET 0.000000 3.647186 0.011889
												}
											}
										}
									}
								}
							}
						}
					}
				}
				JOINT RightShoulder
				{
					OFFSET -15.141001 14.495407 -7.737500
					CHANNELS 3 Xrotation Yrotation Zrotation
					JOINT RightArm
					{
						OFFSET -9.308998 -2.777710 0.208500
						CHANNELS 3 Xrotation Yrotation Zrotation
						JOINT RightForeArm
						{
							OFFSET -29.972300 0.000000 0.000000
							CHANNELS 3 Xrotation Yrotation Zrotation
							JOINT RightHand
							{
								OFFSET -26.026505 0.000000 0.000000
								CHANNELS 3 Xrotation Yrotation Zrotation
								JOINT RightHandThumb1
								{
									OFFSET -12.240601 -7.148026 9.207092
									CHANNELS 3 Xrotation Yrotation Zrotation
									JOINT RightHandThumb2
									{
										OFFSET -4.138618 -2.389435 2.389433
										CHANNELS 3 Xrotation Yrotation Zrotation
										JOINT RightHandThumb3
										{
											OFFSET -2.726974 -1.574417 1.574421
											CHANNELS 3 Xrotation Yrotation Zrotation
											JOINT RightHandThumb4
											{
												OFFSET -3.941010 -2.275345 2.275343
												CHANNELS 3 Xrotation Yrotation Zrotation
												End Site
												{
													OFFSET 0.005814 5.087799 0.009927
												}
											}
										}
									}
								}
								JOINT RightHandIndex1
								{
									OFFSET -24.424698 -1.985657 5.953444
									CHANNELS 3 Xrotation Yrotation Zrotation
									JOINT RightHandIndex2
									{
										OFFSET -6.426697 0.000000 0.000000
										CHANNELS 3 Xrotation Yrotation Zrotation
										JOINT RightHandIndex3
										{
											OFFSET -5.337898 0.000000 0.000000
											CHANNELS 3 Xrotation Yrotation Zrotation
											JOINT RightHandIndex4
											{
												OFFSET -4.409401 0.000000 0.000000
												CHANNELS 3 Xrotation Yrotation Zrotation
												End Site
												{
													OFFSET 0.000000 4.409363 0.014408
												}
											}
										}
									}
								}
								JOINT RightHandMiddle1
								{
									OFFSET -23.810097 0.000000 0.000000
									CHANNELS 3 Xrotation Yrotation Zrotation
									JOINT RightHandMiddle2
									{
										OFFSET -7.176498 0.000000 0.000000
										CHANNELS 3 Xrotation Yrotation Zrotation
										JOINT RightHandMiddle3
										{
											OFFSET -6.774902 0.000000 0.000000
											CHANNELS 3 Xrotation Yrotation Zrotation
											JOINT RightHandMiddle4
											{
												OFFSET -5.403328 0.000000 0.000000
												CHANNELS 3 Xrotation Yrotation Zrotation
												End Site
												{
													OFFSET 0.027702 5.403244 0.017457
												}
											}
										}
									}
								}
								JOINT RightHandRing1
								{
									OFFSET -22.908302 -0.839325 -6.020576
									CHANNELS 3 Xrotation Yrotation Zrotation
									JOINT RightHandRing2
									{
										OFFSET -6.337502 0.000000 0.000000
										CHANNELS 3 Xrotation Yrotation Zrotation
										JOINT RightHandRing3
										{
											OFFSET -5.779297 0.000000 0.000000
											CHANNELS 3 Xrotation Yrotation Zrotation
											JOINT RightHandRing4
											{
												OFFSET -4.965698 0.000000 0.000000
												CHANNELS 3 Xrotation Yrotation Zrotation
												End Site
												{
													OFFSET 0.000000 4.965668 0.016226
												}
											}
										}
									}
								}
								JOINT RightHandPinky1
								{
									OFFSET -20.037003 -1.530334 -10.950259
									CHANNELS 3 Xrotation Yrotation Zrotation
									JOINT RightHandPinky2
									{
										OFFSET -5.254700 0.000000 0.000000
										CHANNELS 3 Xrotation Yrotation Zrotation
										JOINT RightHandPinky3
										{
											OFFSET -4.810204 0.000000 0.000000
											CHANNELS 3 Xrotation Yrotation Zrotation
											JOINT RightHandPinky4
											{
												OFFSET -3.647202 0.000000 0.000000
												CHANNELS 3 Xrotation Yrotation Zrotation
												End Site
												{
													OFFSET 0.000000 3.647186 0.011917
												}
											}
										}
									}
								}
							}
						}
					}
				}
			}
		}
	}
	JOINT LeftUpLeg
	{
		OFFSET 15.427100 -6.655098 0.678600
		CHANNELS 3 Xrotation Yrotation Zrotation
		JOINT LeftLeg
		{
			OFFSET 4.081073 -39.591068 13.024000
			CHANNELS 3 Xrotation Yrotation Zrotation
			JOINT LeftFoot
			{
				OFFSET -4.081074 -37.707932 -15.979700
				CHANNELS 3 Xrotation Yrotation Zrotation
				JOINT LeftToeBase
				{
					OFFSET 5.346399 -15.068900 20.645000
					CHANNELS 3 Xrotation Yrotation Zrotation
					JOINT LeftToe_End
					{
						OFFSET 2.754700 0.931300 11.300900
						CHANNELS 3 Xrotation Yrotation Zrotation
						End Site
						{
							OFFSET 0.000000 11.669021 0.000000
						}
					}
				}
			}
		}
	}
	JOINT RightUpLeg
	{
		OFFSET -15.569500 -6.655098 0.678600
		CHANNELS 3 Xrotation Yrotation Zrotation
		JOINT RightLeg
		{
			OFFSET -4.081825 -39.591045 13.023800
			CHANNELS 3 Xrotation Yrotation Zrotation
			JOINT RightFoot
			{
				OFFSET 4.081824 -37.707954 -15.979600
				CHANNELS 3 Xrotation Yrotation Zrotation
				JOINT RightToeBase
				{
					OFFSET -5.346400 -15.068900 20.645000
					CHANNELS 3 Xrotation Yrotation Zrotation
					JOINT RightToe_End
					{
						OFFSET -2.754700 0.931300 11.300900
						CHANNELS 3 Xrotation Yrotation Zrotation
						End Site
						{
							OFFSET 0.000000 11.669021 0.000000
						}
					}
				}
			}
		}
	}
}
MOTION
Frames: 5
Frame Time: 0.033333
0.149568 98.696304 -0.683046 -1.354358 -5.147095 0.886572 0.275895 -0.122749 -0.159664 -1.199326 -0.064716 -0.167299 -1.199583 -0.061923 -0.165778 1.031542 5.023305 2.723186 10.571998 -2.011520 -1.762422 0.000000 0.000000 0.000000 0.799932 5.226827 -13.325049 9.579458 -19.737203 -66.247200 -0.000007 -14.005485 -0.000012 -13.163012 15.171879 2.329395 -2.714047 26.879462 11.975001 8.336324 19.247483 2.848136 0.574431 15.063929 3.784754 0.000001 0.000001 -0.000001 0.033008 0.674770 -5.600599 0.058414 0.896826 -7.453037 0.067098 0.960867 -7.988711 -0.000000 0.000000 -0.000001 0.130945 1.339117 -11.169032 0.142126 1.394563 -11.637996 0.104471 1.197311 -9.973055 -0.000001 -0.000001 0.000004 0.327355 2.101726 -17.703862 0.220911 1.733497 -14.523810 0.040086 0.743454 -6.172799 -0.000000 -0.000000 0.000002 2.123584 6.230911 -23.806715 0.298452 -2.047401 -17.391622 0.070469 0.984581 -8.187231 0.000001 0.000001 -0.000000 1.973932 -0.879065 22.367589 20.255150 24.139847 53.649411 -0.000003 17.586234 -0.000008 -39.803996 -13.184991 -4.111974 0.608484 -22.198062 -15.090222 10.197911 -22.477755 -2.560822 4.489748 -16.881058 -5.905181 -0.000001 0.000002 0.000000 0.082096 -1.067504 8.795048 0.613228 -2.859900 24.199954 0.111168 -1.240905 10.238402 -0.000000 0.000000 -0.000004 0.151336 -1.445665 11.951586 0.432228 -2.417615 20.270019 0.229262 -1.774206 14.724672 -0.000001 0.000001 -0.000002 0.392235 -2.306519 19.299599 0.427008 -2.403442 20.145896 0.187964 -1.608962 13.325839 0.000002 -0.000002 0.000004 0.642420 -2.923900 24.778499 0.175858 -1.556973 12.887458 0.656359 -2.953872 25.050392 0.000001 0.000001 0.000002 4.695703 6.723056 0.735740 3.267965 0.107490 -1.281284 -6.457975 0.615990 -0.866109 -0.360239 0.000002 -0.000001 -0.000000 0.000000 -0.000000 1.101808 -7.484462 0.152759 6.701125 3.109041 -1.076861 -6.508866 0.340019 -0.469061 -0.000043 -0.000002 0.000001 -0.000000 0.000000 -0.000000 
0.147638 98.698990 -0.683984 -1.350795 -5.164775 0.884418 0.280011 -0.127592 -0.152961 -1.200655 -0.066430 -0.169523 -1.200924 -0.063604 -0.167959 1.046680 5.002037 2.785179 10.479232 -2.064409 -1.761942 0.000000 0.000000 -0.000000 0.798366 5.228261 -13.319172 9.621189 -19.717117 -66.242446 -0.000001 -14.086613 0.000015 -13.168415 15.214783 2.338896 -2.714060 26.879455 11.975039 8.336330 19.247476 2.848132 0.574427 15.063931 3.784767 0.000000 -0.000000 0.000002 0.033006 0.674773 -5.600553 0.058414 0.896823 -7.453037 0.067098 0.960869 -7.988705 0.000000 0.000000 -0.000000 0.130943 1.339115 -11.168995 0.142125 1.394562 -11.637997 0.104471 1.197312 -9.973053 -0.000001 0.000000 -0.000000 0.327352 2.101731 -17.703840 0.220917 1.733502 -14.523784 0.040086 0.743453 -6.172804 -0.000000 0.000001 0.000002 2.123585 6.230912 -23.806703 0.298450 -2.047399 -17.391615 0.070469 0.984582 -8.187233 -0.000000 -0.000000 0.000003 1.978798 -0.864375 22.410971 20.234096 24.034787 53.665534 -0.000002 17.476166 -0.000001 -39.767178 -13.169459 -4.111790 0.608492 -22.198072 -15.090176 10.197894 -22.477748 -2.560842 4.489770 -16.881055 -5.905174 -0.000001 0.000003 -0.000002 0.082095 -1.067504 8.795045 0.613227 -2.859900 24.199949 0.111172 -1.240909 10.238414 -0.000001 0.000001 0.000000 0.151335 -1.445670 11.951620 0.432230 -2.417616 20.270034 0.229259 -1.774203 14.724657 -0.000001 -0.000000 -0.000001 0.392233 -2.306522 19.299599 0.427006 -2.403445 20.145885 0.187967 -1.608959 13.325806 0.000001 -0.000001 0.000004 0.642418 -2.923902 24.778492 0.175855 -1.556973 12.887458 0.656360 -2.953874 25.050397 0.000000 -0.000001 0.000002 4.700724 6.731218 0.741218 3.258171 0.121159 -1.283493 -6.456189 0.617209 -0.870337 -0.346560 -0.000001 0.000000 -0.000000 -0.000000 -0.000000 1.101416 -7.472962 0.160932 6.692535 3.103750 -1.084332 -6.502819 0.339149 -0.466393 -0.000019 -0.000002 -0.000001 -0.000000 0.000000 -0.000000 
0.147437 98.719490 -0.683806 -1.349349 -5.184948 0.883477 0.284073 -0.131885 -0.146521 -1.200477 -0.067909 -0.172373 -1.200753 -0.065071 -0.170773 1.049464 4.992960 2.825483 10.439902 -2.070248 -1.734568 -0.000001 0.000000 -0.000000 0.796520 5.231151 -13.311848 9.644216 -19.701377 -66.241135 0.000003 -14.131666 0.000017 -13.162412 15.232311 2.348140 -2.714052 26.879448 11.975013 8.336326 19.247494 2.848144 0.574421 15.063931 3.784774 0.000000 0.000001 0.000000 0.033005 0.674772 -5.600581 0.058413 0.896828 -7.452990 0.067100 0.960867 -7.988717 0.000000 -0.000000 -0.000000 0.130939 1.339116 -11.169011 0.142126 1.394562 -11.637993 0.104469 1.197312 -9.973052 -0.000001 -0.000000 0.000003 0.327350 2.101728 -17.703869 0.220914 1.733501 -14.523806 0.040084 0.743452 -6.172802 -0.000000 -0.000000 -0.000002 2.123583 6.230914 -23.806698 0.298451 -2.047399 -17.391622 0.070467 0.984583 -8.187227 0.000001 -0.000001 -0.000001 1.982271 -0.856311 22.439174 20.166373 23.959682 53.728734 -0.000004 17.306472 0.000012 -39.755116 -13.139581 -4.050088 0.608492 -22.198074 -15.090174 10.197892 -22.477755 -2.560854 4.489799 -16.881057 -5.905139 -0.000000 0.000003 -0.000002 0.082094 -1.067497 8.795034 0.613230 -2.859901 24.199954 0.111170 -1.240904 10.238407 -0.000001 0.000000 -0.000000 0.151333 -1.445666 11.951583 0.432224 -2.417611 20.270014 0.229261 -1.774206 14.724669 -0.000001 -0.000000 0.000002 0.392230 -2.306520 19.299591 0.427007 -2.403445 20.145896 0.187964 -1.608960 13.325831 0.000001 -0.000001 0.000000 0.642415 -2.923903 24.778495 0.175854 -1.556972 12.887480 0.656357 -2.953871 25.050398 0.000000 0.000001 0.000002 4.741036 6.731363 0.738706 3.182477 0.148341 -1.281682 -6.421022 0.616641 -0.876785 -0.320294 0.000000 -0.000001 -0.000000 -0.000000 0.000000 1.145920 -7.469979 0.163650 6.618405 3.073416 -1.084766 -6.475322 0.335180 -0.457085 -0.000101 -0.000002 0.000001 0.000000 0.000000 0.000000 
0.150890 98.730751 -0.684170 -1.348000 -5.205622 0.875937 0.287620 -0.134731 -0.132871 -1.200780 -0.068448 -0.174381 -1.201061 -0.065591 -0.172767 1.041492 4.992253 2.840584 10.440433 -2.048089 -1.674210 -0.000000 0.000000 0.000000 0.794874 5.234284 -13.305145 9.654997 -19.689615 -66.240950 -0.000002 -14.153334 0.000009 -13.148002 15.232527 2.354674 -2.714056 26.879467 11.975023 8.336332 19.247485 2.848124 0.574403 15.063926 3.784794 0.000001 -0.000001 0.000003 0.033005 0.674773 -5.600553 0.058412 0.896823 -7.453020 0.067101 0.960867 -7.988705 0.000001 0.000001 -0.000001 0.130940 1.339117 -11.168985 0.142125 1.394562 -11.637994 0.104469 1.197312 -9.973052 0.000001 -0.000001 -0.000001 0.327350 2.101730 -17.703820 0.220912 1.733498 -14.523817 0.040084 0.743453 -6.172806 -0.000000 -0.000000 -0.000000 2.123582 6.230915 -23.806672 0.298454 -2.047397 -17.391654 0.070464 0.984577 -8.187210 -0.000001 0.000000 -0.000001 1.983278 -0.862521 22.437537 20.058874 23.955753 53.834031 0.000005 17.066271 0.000009 -39.786310 -13.076016 -3.952944 0.608483 -22.198069 -15.090208 10.197881 -22.477772 -2.560884 4.489772 -16.881053 -5.905160 0.000000 0.000003 -0.000002 0.082095 -1.067502 8.795028 0.613232 -2.859902 24.199965 0.111170 -1.240902 10.238392 -0.000000 0.000001 -0.000001 0.151336 -1.445666 11.951588 0.432225 -2.417612 20.270004 0.229263 -1.774208 14.724674 -0.000001 -0.000000 0.000001 0.392232 -2.306519 19.299587 0.427010 -2.403445 20.145899 0.187963 -1.608961 13.325833 -0.000001 -0.000000 -0.000002 0.642418 -2.923902 24.778482 0.175855 -1.556974 12.887469 0.656356 -2.953869 25.050385 -0.000001 -0.000000 0.000001 4.759275 6.724624 0.736042 3.152310 0.182042 -1.263043 -6.410001 0.617421 -0.891143 -0.303293 0.000001 0.000001 -0.000000 0.000000 0.000000 1.183667 -7.471833 0.166098 6.566564 3.035464 -1.079744 -6.463067 0.329612 -0.447292 -0.000063 0.000001 0.000000 -0.000000 0.000000 -0.000000 
0.152053 98.739319 -0.683958 -1.345679 -5.231335 0.880161 0.289483 -0.134043 -0.132990 -1.202410 -0.068287 -0.174786 -1.202693 -0.065389 -0.173172 1.034982 4.994471 2.850292 10.435749 -2.018039 -1.627945 0.000000 0.000000 -0.000000 0.793911 5.236310 -13.301163 9.659498 -19.682107 -66.239721 0.000005 -14.163437 -0.000034 -13.129374 15.227517 2.356684 -2.714058 26.879455 11.975029 8.336325 19.247480 2.848134 0.574414 15.063934 3.784780 0.000002 -0.000001 -0.000005 0.033008 0.674773 -5.600565 0.058413 0.896829 -7.453016 0.067098 0.960864 -7.988710 -0.000001 0.000000 -0.000000 0.130941 1.339115 -11.169004 0.142126 1.394563 -11.637996 0.104470 1.197312 -9.973051 -0.000001 0.000001 0.000000 0.327353 2.101731 -17.703854 0.220914 1.733499 -14.523824 0.040085 0.743453 -6.172804 0.000001 0.000001 0.000002 2.123585 6.230914 -23.806696 0.298453 -2.047400 -17.391624 0.070466 0.984582 -8.187214 0.000001 0.000001 0.000001 1.983218 -0.873614 22.424495 19.965618 23.981098 53.927697 0.000006 16.874700 -0.000024 -39.832345 -13.011866 -3.889638 0.608485 -22.198058 -15.090207 10.197906 -22.477756 -2.560839 4.489791 -16.881057 -5.905151 0.000001 0.000003 0.000002 0.082094 -1.067504 8.795035 0.613231 -2.859902 24.199939 0.111173 -1.240908 10.238412 -0.000000 -0.000000 -0.000000 0.151337 -1.445667 11.951589 0.432225 -2.417614 20.270033 0.229258 -1.774203 14.724667 0.000001 0.000000 0.000003 0.392231 -2.306524 19.299606 0.427007 -2.403441 20.145877 0.187968 -1.608963 13.325842 -0.000000 -0.000000 -0.000002 0.642417 -2.923901 24.778494 0.175860 -1.556973 12.887472 0.656358 -2.953870 25.050380 -0.000000 0.000000 0.000002 4.784472 6.721420 0.731216 3.113153 0.211153 -1.264619 -6.396535 0.622543 -0.895531 -0.307973 0.000001 0.000001 -0.000000 0.000000 0.000000 1.196832 -7.470077 0.161259 6.540138 3.026604 -1.079256 -6.453015 0.328658 -0.443929 -0.000088 0.000001 0.000001 0.000000 0.000000 0.000000 
